STARTFONT 2.1
COMMENT
COMMENT Converted from OpenType font "CircularStd-Book.otf" by "otf2bdf 3.0".
COMMENT
FONT -FreeType-Circular Std Book-Medium-R-Normal--18-130-100-100-P-91-ISO10646-1
SIZE 13 100 100
FONTBOUNDINGBOX 28 20 -1 -4
STARTPROPERTIES 19
FOUNDRY "FreeType"
FAMILY_NAME "Circular Std Book"
WEIGHT_NAME "Medium"
SLANT "R"
SETWIDTH_NAME "Normal"
ADD_STYLE_NAME ""
PIXEL_SIZE 18
POINT_SIZE 130
RESOLUTION_X 100
RESOLUTION_Y 100
SPACING "P"
AVERAGE_WIDTH 91
CHARSET_REGISTRY "ISO10646"
CHARSET_ENCODING "1"
FONT_ASCENT 17
FONT_DESCENT 4
COPYRIGHT "Generated in 2013 by FontLab Studio. Copyright info pending."
_OTF_FONTFILE "CircularStd-Book.otf"
_OTF_PSNAME "CircularStd-Book"
ENDPROPERTIES
CHARS 332
STARTCHAR 0000
ENCODING 0
SWIDTH 0 0
DWIDTH 0 0
BBX 0 0 0 0
BITMAP
ENDCHAR
STARTCHAR 000D
ENCODING 13
SWIDTH 276 0
DWIDTH 5 0
BBX 0 0 0 0
BITMAP
ENDCHAR
STARTCHAR 0020
ENCODING 32
SWIDTH 276 0
DWIDTH 5 0
BBX 0 0 0 0
BITMAP
ENDCHAR
STARTCHAR 0021
ENCODING 33
SWIDTH 332 0
DWIDTH 6 0
BBX 2 13 2 0
BITMAP
C0
C0
C0
C0
C0
C0
C0
80
80
00
00
C0
C0
ENDCHAR
STARTCHAR 0022
ENCODING 34
SWIDTH 387 0
DWIDTH 7 0
BBX 5 5 1 7
BITMAP
D8
D8
D8
98
90
ENDCHAR
STARTCHAR 0023
ENCODING 35
SWIDTH 720 0
DWIDTH 13 0
BBX 11 12 1 0
BITMAP
08C0
0880
1880
7FE0
1980
1100
1100
1100
FFE0
3300
2200
2200
ENDCHAR
STARTCHAR 0024
ENCODING 36
SWIDTH 609 0
DWIDTH 11 0
BBX 9 16 1 -2
BITMAP
0800
0800
3E00
7F00
4980
C800
6800
7C00
1F00
0B80
C980
C980
7F00
3E00
0800
0800
ENDCHAR
STARTCHAR 0025
ENCODING 37
SWIDTH 830 0
DWIDTH 15 0
BBX 13 12 1 0
BITMAP
7860
D840
CCC0
CD80
7900
0300
0600
04F0
0D98
1998
31D8
20F0
ENDCHAR
STARTCHAR 0026
ENCODING 38
SWIDTH 720 0
DWIDTH 13 0
BBX 11 13 1 0
BITMAP
3C00
7E00
6300
6300
6600
3C00
3840
7C40
C6C0
C380
C380
7EC0
3C60
ENDCHAR
STARTCHAR 0027
ENCODING 39
SWIDTH 221 0
DWIDTH 4 0
BBX 2 5 1 7
BITMAP
C0
C0
C0
80
80
ENDCHAR
STARTCHAR 0028
ENCODING 40
SWIDTH 276 0
DWIDTH 5 0
BBX 4 17 1 -3
BITMAP
10
30
60
60
40
C0
C0
80
80
80
C0
C0
40
60
60
30
10
ENDCHAR
STARTCHAR 0029
ENCODING 41
SWIDTH 276 0
DWIDTH 5 0
BBX 4 17 0 -3
BITMAP
80
40
60
20
30
10
10
10
10
10
10
10
30
20
60
40
80
ENDCHAR
STARTCHAR 002A
ENCODING 42
SWIDTH 443 0
DWIDTH 8 0
BBX 6 7 1 6
BITMAP
30
30
FC
FC
30
78
48
ENDCHAR
STARTCHAR 002B
ENCODING 43
SWIDTH 553 0
DWIDTH 10 0
BBX 8 8 1 1
BITMAP
18
18
18
FF
18
18
18
18
ENDCHAR
STARTCHAR 002C
ENCODING 44
SWIDTH 276 0
DWIDTH 5 0
BBX 3 5 1 -3
BITMAP
E0
E0
20
60
C0
ENDCHAR
STARTCHAR 002D
ENCODING 45
SWIDTH 387 0
DWIDTH 7 0
BBX 5 1 1 5
BITMAP
F8
ENDCHAR
STARTCHAR 002E
ENCODING 46
SWIDTH 276 0
DWIDTH 5 0
BBX 3 2 1 0
BITMAP
E0
E0
ENDCHAR
STARTCHAR 002F
ENCODING 47
SWIDTH 443 0
DWIDTH 8 0
BBX 8 13 0 0
BITMAP
03
06
06
04
0C
08
18
10
30
20
60
40
C0
ENDCHAR
STARTCHAR 0030
ENCODING 48
SWIDTH 609 0
DWIDTH 11 0
BBX 9 12 1 0
BITMAP
3E00
7F00
6180
C180
C180
C180
C180
C180
C180
4180
7F00
3E00
ENDCHAR
STARTCHAR 0031
ENCODING 49
SWIDTH 332 0
DWIDTH 6 0
BBX 5 12 0 0
BITMAP
18
38
F8
18
18
18
18
18
18
18
18
18
ENDCHAR
STARTCHAR 0032
ENCODING 50
SWIDTH 553 0
DWIDTH 10 0
BBX 8 12 1 0
BITMAP
3C
7E
C3
C3
03
06
0C
38
70
C0
FF
FF
ENDCHAR
STARTCHAR 0033
ENCODING 51
SWIDTH 553 0
DWIDTH 10 0
BBX 8 12 1 0
BITMAP
FF
FF
06
0C
38
1E
03
03
83
C3
7E
3C
ENDCHAR
STARTCHAR 0034
ENCODING 52
SWIDTH 553 0
DWIDTH 10 0
BBX 9 12 1 0
BITMAP
0E00
0E00
1E00
3600
6600
6600
C600
FF80
FF80
0600
0600
0600
ENDCHAR
STARTCHAR 0035
ENCODING 53
SWIDTH 553 0
DWIDTH 10 0
BBX 8 12 1 0
BITMAP
7F
7F
60
40
FC
FF
03
03
83
C3
FE
3C
ENDCHAR
STARTCHAR 0036
ENCODING 54
SWIDTH 553 0
DWIDTH 10 0
BBX 9 12 1 0
BITMAP
1F00
3F00
6000
C000
DE00
FF00
C180
C180
C180
C180
7F00
3E00
ENDCHAR
STARTCHAR 0037
ENCODING 55
SWIDTH 498 0
DWIDTH 9 0
BBX 9 12 0 0
BITMAP
FF80
FF80
0300
0600
0C00
0C00
1800
1800
3000
3000
3000
3000
ENDCHAR
STARTCHAR 0038
ENCODING 56
SWIDTH 553 0
DWIDTH 10 0
BBX 8 12 1 0
BITMAP
3C
7E
C3
C3
43
3E
7E
C3
C1
C3
FF
3C
ENDCHAR
STARTCHAR 0039
ENCODING 57
SWIDTH 609 0
DWIDTH 11 0
BBX 9 12 1 0
BITMAP
3C00
7E00
C300
C100
C180
C380
7F80
3D00
0300
0300
FE00
F800
ENDCHAR
STARTCHAR 003A
ENCODING 58
SWIDTH 276 0
DWIDTH 5 0
BBX 3 9 1 0
BITMAP
60
E0
60
00
00
00
60
E0
60
ENDCHAR
STARTCHAR 003B
ENCODING 59
SWIDTH 276 0
DWIDTH 5 0
BBX 3 11 1 -2
BITMAP
60
E0
60
00
00
00
00
E0
E0
20
40
ENDCHAR
STARTCHAR 003C
ENCODING 60
SWIDTH 498 0
DWIDTH 9 0
BBX 7 9 1 1
BITMAP
02
0E
3C
F0
C0
E0
38
0E
02
ENDCHAR
STARTCHAR 003D
ENCODING 61
SWIDTH 609 0
DWIDTH 11 0
BBX 9 4 1 3
BITMAP
FF80
0000
0000
FF80
ENDCHAR
STARTCHAR 003E
ENCODING 62
SWIDTH 498 0
DWIDTH 9 0
BBX 7 9 1 1
BITMAP
80
E0
78
1E
06
1E
78
E0
80
ENDCHAR
STARTCHAR 003F
ENCODING 63
SWIDTH 498 0
DWIDTH 9 0
BBX 8 13 1 0
BITMAP
7C
FE
C6
83
82
06
1C
18
10
00
00
30
30
ENDCHAR
STARTCHAR 0040
ENCODING 64
SWIDTH 830 0
DWIDTH 15 0
BBX 13 14 1 -1
BITMAP
0F80
38E0
6030
4018
C7C8
88C8
98C8
9888
9998
CFF0
4000
6020
38E0
0FC0
ENDCHAR
STARTCHAR 0041
ENCODING 65
SWIDTH 720 0
DWIDTH 13 0
BBX 12 13 0 0
BITMAP
0700
0700
0F00
0D80
0980
1880
18C0
30C0
3FE0
3FE0
6060
6030
C030
ENDCHAR
STARTCHAR 0042
ENCODING 66
SWIDTH 609 0
DWIDTH 11 0
BBX 8 13 2 0
BITMAP
FC
FE
83
83
82
FE
FE
83
83
83
83
FE
FC
ENDCHAR
STARTCHAR 0043
ENCODING 67
SWIDTH 775 0
DWIDTH 14 0
BBX 12 13 1 0
BITMAP
0F80
3FC0
6060
C030
C000
C000
C000
C000
C000
C030
6060
3FC0
0F80
ENDCHAR
STARTCHAR 0044
ENCODING 68
SWIDTH 720 0
DWIDTH 13 0
BBX 10 13 2 0
BITMAP
FE00
FF00
8180
80C0
80C0
80C0
80C0
80C0
80C0
80C0
8180
FF00
FE00
ENDCHAR
STARTCHAR 0045
ENCODING 69
SWIDTH 609 0
DWIDTH 11 0
BBX 7 13 2 0
BITMAP
FE
FE
80
80
80
80
FE
FE
80
80
80
FE
FE
ENDCHAR
STARTCHAR 0046
ENCODING 70
SWIDTH 553 0
DWIDTH 10 0
BBX 7 13 2 0
BITMAP
FE
FE
80
80
80
80
FE
FE
80
80
80
80
80
ENDCHAR
STARTCHAR 0047
ENCODING 71
SWIDTH 775 0
DWIDTH 14 0
BBX 12 13 1 0
BITMAP
0F80
3FC0
6060
C030
C000
C000
C3F0
C3F0
C030
C030
6070
3FF0
0F30
ENDCHAR
STARTCHAR 0048
ENCODING 72
SWIDTH 720 0
DWIDTH 13 0
BBX 10 13 2 0
BITMAP
80C0
80C0
80C0
80C0
80C0
FFC0
FFC0
80C0
80C0
80C0
80C0
80C0
80C0
ENDCHAR
STARTCHAR 0049
ENCODING 73
SWIDTH 276 0
DWIDTH 5 0
BBX 1 13 2 0
BITMAP
80
80
80
80
80
80
80
80
80
80
80
80
80
ENDCHAR
STARTCHAR 004A
ENCODING 74
SWIDTH 553 0
DWIDTH 10 0
BBX 8 13 0 0
BITMAP
03
03
03
03
03
03
03
03
C3
C3
63
7E
3C
ENDCHAR
STARTCHAR 004B
ENCODING 75
SWIDTH 664 0
DWIDTH 12 0
BBX 9 13 2 0
BITMAP
8180
8300
8600
8E00
9C00
B800
B800
EC00
CC00
8600
8300
8380
8180
ENDCHAR
STARTCHAR 004C
ENCODING 76
SWIDTH 553 0
DWIDTH 10 0
BBX 7 13 2 0
BITMAP
80
80
80
80
80
80
80
80
80
80
80
FE
FE
ENDCHAR
STARTCHAR 004D
ENCODING 77
SWIDTH 941 0
DWIDTH 17 0
BBX 13 13 2 0
BITMAP
C018
E038
E038
B028
B068
B068
98C8
98C8
8D88
8D88
8508
8708
8708
ENDCHAR
STARTCHAR 004E
ENCODING 78
SWIDTH 775 0
DWIDTH 14 0
BBX 10 13 2 0
BITMAP
C0C0
E0C0
F0C0
B0C0
98C0
9CC0
8CC0
86C0
86C0
83C0
81C0
81C0
80C0
ENDCHAR
STARTCHAR 004F
ENCODING 79
SWIDTH 775 0
DWIDTH 14 0
BBX 13 13 1 0
BITMAP
0F80
3FC0
6060
C030
C010
C018
C018
C018
C010
C030
6060
3FC0
0F80
ENDCHAR
STARTCHAR 0050
ENCODING 80
SWIDTH 609 0
DWIDTH 11 0
BBX 8 13 2 0
BITMAP
FC
FE
83
83
83
83
FE
F8
80
80
80
80
80
ENDCHAR
STARTCHAR 0051
ENCODING 81
SWIDTH 775 0
DWIDTH 14 0
BBX 13 14 1 -1
BITMAP
0F80
3FC0
6060
C030
C010
C018
C018
C118
C310
C1B0
60E0
3FE0
0FB0
0010
ENDCHAR
STARTCHAR 0052
ENCODING 82
SWIDTH 609 0
DWIDTH 11 0
BBX 8 13 2 0
BITMAP
FC
FF
83
81
83
83
FE
F8
8C
8C
86
86
83
ENDCHAR
STARTCHAR 0053
ENCODING 83
SWIDTH 609 0
DWIDTH 11 0
BBX 9 13 1 0
BITMAP
3E00
7F00
C180
C100
C000
7000
3E00
0700
0180
C180
C180
7F00
3E00
ENDCHAR
STARTCHAR 0054
ENCODING 84
SWIDTH 609 0
DWIDTH 11 0
BBX 11 13 0 0
BITMAP
FFE0
FFE0
0C00
0C00
0C00
0C00
0C00
0C00
0C00
0C00
0C00
0C00
0C00
ENDCHAR
STARTCHAR 0055
ENCODING 85
SWIDTH 664 0
DWIDTH 12 0
BBX 10 13 1 0
BITMAP
C0C0
C0C0
C0C0
C0C0
C0C0
C0C0
C0C0
C0C0
C0C0
40C0
6180
7F80
1E00
ENDCHAR
STARTCHAR 0056
ENCODING 86
SWIDTH 664 0
DWIDTH 12 0
BBX 11 13 0 0
BITMAP
C020
6060
6060
6040
30C0
30C0
1180
1980
1900
0B00
0F00
0E00
0600
ENDCHAR
STARTCHAR 0057
ENCODING 87
SWIDTH 996 0
DWIDTH 18 0
BBX 18 13 0 0
BITMAP
C0C0C0
60C080
61E180
61E180
212180
333100
333300
321300
161A00
1E1E00
1E0E00
0C0E00
0C0C00
ENDCHAR
STARTCHAR 0058
ENCODING 88
SWIDTH 609 0
DWIDTH 11 0
BBX 10 13 1 0
BITMAP
C0C0
C180
6300
3300
3600
1C00
0C00
1C00
3600
3300
6300
C180
C1C0
ENDCHAR
STARTCHAR 0059
ENCODING 89
SWIDTH 609 0
DWIDTH 11 0
BBX 11 13 0 0
BITMAP
E060
60C0
3080
3180
1B00
0B00
0E00
0400
0400
0400
0400
0400
0400
ENDCHAR
STARTCHAR 005A
ENCODING 90
SWIDTH 609 0
DWIDTH 11 0
BBX 10 13 1 0
BITMAP
FFC0
FFC0
0180
0300
0600
0E00
0C00
1800
3000
6000
E000
FFC0
FFC0
ENDCHAR
STARTCHAR 005B
ENCODING 91
SWIDTH 276 0
DWIDTH 5 0
BBX 3 16 2 -2
BITMAP
E0
80
80
80
80
80
80
80
80
80
80
80
80
80
80
E0
ENDCHAR
STARTCHAR 005C
ENCODING 92
SWIDTH 443 0
DWIDTH 8 0
BBX 8 13 0 0
BITMAP
C0
40
60
20
30
10
18
08
0C
0C
06
06
03
ENDCHAR
STARTCHAR 005D
ENCODING 93
SWIDTH 276 0
DWIDTH 5 0
BBX 4 16 0 -2
BITMAP
F0
30
30
30
30
30
30
30
30
30
30
30
30
30
30
F0
ENDCHAR
STARTCHAR 005E
ENCODING 94
SWIDTH 498 0
DWIDTH 9 0
BBX 8 7 1 6
BITMAP
18
38
2C
6C
46
C6
83
ENDCHAR
STARTCHAR 005F
ENCODING 95
SWIDTH 553 0
DWIDTH 10 0
BBX 10 1 0 -1
BITMAP
FFC0
ENDCHAR
STARTCHAR 0060
ENCODING 96
SWIDTH 276 0
DWIDTH 5 0
BBX 3 2 1 10
BITMAP
C0
60
ENDCHAR
STARTCHAR 0061
ENCODING 97
SWIDTH 498 0
DWIDTH 9 0
BBX 7 9 1 0
BITMAP
3C
6E
C6
06
7E
C2
C6
EE
7A
ENDCHAR
STARTCHAR 0062
ENCODING 98
SWIDTH 609 0
DWIDTH 11 0
BBX 9 13 1 0
BITMAP
C000
C000
C000
C000
DE00
FF00
E180
C180
C180
C180
E180
F300
DE00
ENDCHAR
STARTCHAR 0063
ENCODING 99
SWIDTH 553 0
DWIDTH 10 0
BBX 8 9 1 0
BITMAP
3C
7E
C3
C0
80
C0
C3
7E
3C
ENDCHAR
STARTCHAR 0064
ENCODING 100
SWIDTH 609 0
DWIDTH 11 0
BBX 8 13 1 0
BITMAP
03
03
03
03
3F
7F
C3
C3
81
C3
C3
67
3D
ENDCHAR
STARTCHAR 0065
ENCODING 101
SWIDTH 553 0
DWIDTH 10 0
BBX 8 9 1 0
BITMAP
3C
7E
C3
C3
FF
C0
C3
7E
3C
ENDCHAR
STARTCHAR 0066
ENCODING 102
SWIDTH 332 0
DWIDTH 6 0
BBX 6 14 0 0
BITMAP
0C
1C
30
30
30
FC
FC
30
30
30
30
30
30
30
ENDCHAR
STARTCHAR 0067
ENCODING 103
SWIDTH 553 0
DWIDTH 10 0
BBX 8 13 1 -4
BITMAP
3F
77
C3
C3
C1
C3
C3
67
3F
03
C3
EE
3C
ENDCHAR
STARTCHAR 0068
ENCODING 104
SWIDTH 553 0
DWIDTH 10 0
BBX 8 13 1 0
BITMAP
C0
C0
C0
C0
DE
FE
C3
C3
C3
C3
C3
C3
C3
ENDCHAR
STARTCHAR 0069
ENCODING 105
SWIDTH 276 0
DWIDTH 5 0
BBX 2 14 1 0
BITMAP
C0
C0
40
00
00
C0
C0
C0
C0
C0
C0
C0
C0
C0
ENDCHAR
STARTCHAR 006A
ENCODING 106
SWIDTH 276 0
DWIDTH 5 0
BBX 3 18 0 -4
BITMAP
60
60
20
00
00
60
60
60
60
60
60
60
60
60
60
60
E0
C0
ENDCHAR
STARTCHAR 006B
ENCODING 107
SWIDTH 498 0
DWIDTH 9 0
BBX 8 13 1 0
BITMAP
C0
C0
C0
C0
C7
CE
CC
D8
F8
EC
CC
C6
C3
ENDCHAR
STARTCHAR 006C
ENCODING 108
SWIDTH 276 0
DWIDTH 5 0
BBX 2 13 1 0
BITMAP
C0
C0
C0
C0
C0
C0
C0
C0
C0
C0
C0
C0
C0
ENDCHAR
STARTCHAR 006D
ENCODING 109
SWIDTH 830 0
DWIDTH 15 0
BBX 13 9 1 0
BITMAP
DCF0
E798
C318
C308
C308
C308
C308
C308
C308
ENDCHAR
STARTCHAR 006E
ENCODING 110
SWIDTH 553 0
DWIDTH 10 0
BBX 8 9 1 0
BITMAP
DE
FE
C3
C3
C3
C3
C3
C3
C3
ENDCHAR
STARTCHAR 006F
ENCODING 111
SWIDTH 553 0
DWIDTH 10 0
BBX 9 9 1 0
BITMAP
3C00
7F00
C300
C180
8180
C180
C300
7F00
3C00
ENDCHAR
STARTCHAR 0070
ENCODING 112
SWIDTH 609 0
DWIDTH 11 0
BBX 9 13 1 -4
BITMAP
DE00
FF00
E180
C180
C180
C180
E180
FF00
DE00
C000
C000
C000
C000
ENDCHAR
STARTCHAR 0071
ENCODING 113
SWIDTH 609 0
DWIDTH 11 0
BBX 8 13 1 -4
BITMAP
3D
7F
C3
C3
81
C3
C3
7F
3D
01
01
01
01
ENDCHAR
STARTCHAR 0072
ENCODING 114
SWIDTH 387 0
DWIDTH 7 0
BBX 5 9 1 0
BITMAP
D8
F8
E0
C0
C0
C0
C0
C0
C0
ENDCHAR
STARTCHAR 0073
ENCODING 115
SWIDTH 443 0
DWIDTH 8 0
BBX 6 9 1 0
BITMAP
78
FC
C4
C0
78
0C
84
EC
78
ENDCHAR
STARTCHAR 0074
ENCODING 116
SWIDTH 332 0
DWIDTH 6 0
BBX 6 12 0 0
BITMAP
30
30
30
FC
FC
30
30
30
30
30
3C
1C
ENDCHAR
STARTCHAR 0075
ENCODING 117
SWIDTH 553 0
DWIDTH 10 0
BBX 8 9 1 0
BITMAP
C3
C3
C3
C3
C3
C3
C3
67
3B
ENDCHAR
STARTCHAR 0076
ENCODING 118
SWIDTH 498 0
DWIDTH 9 0
BBX 9 9 0 0
BITMAP
C180
6100
6300
2300
3600
3600
1400
1C00
0C00
ENDCHAR
STARTCHAR 0077
ENCODING 119
SWIDTH 775 0
DWIDTH 14 0
BBX 14 9 0 0
BITMAP
C30C
638C
6788
6698
24D8
34D0
3C70
1870
1860
ENDCHAR
STARTCHAR 0078
ENCODING 120
SWIDTH 498 0
DWIDTH 9 0
BBX 7 9 1 0
BITMAP
C6
C6
6C
38
38
38
6C
C6
C6
ENDCHAR
STARTCHAR 0079
ENCODING 121
SWIDTH 498 0
DWIDTH 9 0
BBX 9 13 0 -4
BITMAP
C180
6180
6300
3300
3200
1600
1C00
0C00
0C00
1800
1800
3000
3000
ENDCHAR
STARTCHAR 007A
ENCODING 122
SWIDTH 443 0
DWIDTH 8 0
BBX 7 9 1 0
BITMAP
FE
FE
0C
18
30
60
60
FE
FE
ENDCHAR
STARTCHAR 007B
ENCODING 123
SWIDTH 332 0
DWIDTH 6 0
BBX 5 16 1 -2
BITMAP
18
30
20
20
20
20
20
E0
C0
60
20
20
20
20
30
18
ENDCHAR
STARTCHAR 007C
ENCODING 124
SWIDTH 276 0
DWIDTH 5 0
BBX 1 17 2 -3
BITMAP
80
80
80
80
80
80
80
80
80
80
80
80
80
80
80
80
80
ENDCHAR
STARTCHAR 007D
ENCODING 125
SWIDTH 332 0
DWIDTH 6 0
BBX 6 16 0 -2
BITMAP
E0
20
30
30
30
30
30
1C
1C
30
30
30
30
30
20
E0
ENDCHAR
STARTCHAR 007E
ENCODING 126
SWIDTH 553 0
DWIDTH 10 0
BBX 9 3 1 4
BITMAP
2000
FF80
8F00
ENDCHAR
STARTCHAR 00A0
ENCODING 160
SWIDTH 276 0
DWIDTH 5 0
BBX 0 0 0 0
BITMAP
ENDCHAR
STARTCHAR 00A1
ENCODING 161
SWIDTH 276 0
DWIDTH 5 0
BBX 3 13 1 -4
BITMAP
40
E0
00
00
40
40
40
40
40
40
40
C0
E0
ENDCHAR
STARTCHAR 00A2
ENCODING 162
SWIDTH 553 0
DWIDTH 10 0
BBX 8 12 1 0
BITMAP
18
18
7E
7B
DA
D8
D8
DA
7F
3E
18
18
ENDCHAR
STARTCHAR 00A3
ENCODING 163
SWIDTH 609 0
DWIDTH 11 0
BBX 9 12 1 0
BITMAP
1E00
3F00
6300
6000
6000
FE00
FE00
3000
3000
6180
FF80
FF00
ENDCHAR
STARTCHAR 00A4
ENCODING 164
SWIDTH 609 0
DWIDTH 11 0
BBX 8 9 1 0
BITMAP
81
FF
63
43
C1
43
63
FF
81
ENDCHAR
STARTCHAR 00A5
ENCODING 165
SWIDTH 609 0
DWIDTH 11 0
BBX 9 12 1 0
BITMAP
C180
C300
6300
3600
3400
FF00
1800
1800
FF00
1800
1800
1800
ENDCHAR
STARTCHAR 00A6
ENCODING 166
SWIDTH 276 0
DWIDTH 5 0
BBX 1 17 2 -3
BITMAP
80
80
80
80
80
80
80
00
00
00
80
80
80
80
80
80
80
ENDCHAR
STARTCHAR 00A7
ENCODING 167
SWIDTH 553 0
DWIDTH 10 0
BBX 7 17 2 -4
BITMAP
78
EC
86
84
C0
70
FC
8C
86
C6
7C
3C
0E
86
86
EC
78
ENDCHAR
STARTCHAR 00A8
ENCODING 168
SWIDTH 387 0
DWIDTH 7 0
BBX 5 2 1 10
BITMAP
D8
D8
ENDCHAR
STARTCHAR 00A9
ENCODING 169
SWIDTH 830 0
DWIDTH 15 0
BBX 13 13 1 0
BITMAP
0F80
38E0
6030
4F90
D898
9018
9008
9098
C998
4710
6030
38E0
0F80
ENDCHAR
STARTCHAR 00AA
ENCODING 170
SWIDTH 443 0
DWIDTH 8 0
BBX 5 7 1 5
BITMAP
78
C8
08
78
C8
C8
78
ENDCHAR
STARTCHAR 00AB
ENCODING 171
SWIDTH 498 0
DWIDTH 9 0
BBX 7 7 1 2
BITMAP
26
6C
C8
98
C8
6C
26
ENDCHAR
STARTCHAR 00AC
ENCODING 172
SWIDTH 553 0
DWIDTH 10 0
BBX 8 4 1 3
BITMAP
FF
01
01
01
ENDCHAR
STARTCHAR 00AD
ENCODING 173
SWIDTH 387 0
DWIDTH 7 0
BBX 5 1 1 5
BITMAP
F8
ENDCHAR
STARTCHAR 00AE
ENCODING 174
SWIDTH 830 0
DWIDTH 15 0
BBX 13 13 1 0
BITMAP
0F80
38E0
6030
4F10
CD98
8C98
8F88
8F18
CD18
4D90
6030
38E0
0F80
ENDCHAR
STARTCHAR 00AF
ENCODING 175
SWIDTH 332 0
DWIDTH 6 0
BBX 5 1 1 11
BITMAP
F8
ENDCHAR
STARTCHAR 00B0
ENCODING 176
SWIDTH 387 0
DWIDTH 7 0
BBX 6 6 0 6
BITMAP
38
6C
C4
C4
6C
38
ENDCHAR
STARTCHAR 00B1
ENCODING 177
SWIDTH 553 0
DWIDTH 10 0
BBX 8 8 1 1
BITMAP
18
18
FF
18
18
18
00
FF
ENDCHAR
STARTCHAR 00B2
ENCODING 178
SWIDTH 387 0
DWIDTH 7 0
BBX 5 7 1 6
BITMAP
70
D8
98
30
60
C0
F8
ENDCHAR
STARTCHAR 00B3
ENCODING 179
SWIDTH 387 0
DWIDTH 7 0
BBX 5 7 1 6
BITMAP
F8
18
30
38
08
C8
70
ENDCHAR
STARTCHAR 00B4
ENCODING 180
SWIDTH 276 0
DWIDTH 5 0
BBX 3 2 1 10
BITMAP
60
C0
ENDCHAR
STARTCHAR 00B5
ENCODING 181
SWIDTH 553 0
DWIDTH 10 0
BBX 8 13 1 -4
BITMAP
C3
C3
C3
C3
C3
C3
C3
E7
FF
C0
C0
C0
C0
ENDCHAR
STARTCHAR 00B6
ENCODING 182
SWIDTH 609 0
DWIDTH 11 0
BBX 10 17 1 -4
BITMAP
7FC0
F900
F900
F900
F900
F900
7900
1900
1900
1900
1900
1900
1900
1900
1900
1900
1900
ENDCHAR
STARTCHAR 00B7
ENCODING 183
SWIDTH 276 0
DWIDTH 5 0
BBX 3 2 1 4
BITMAP
E0
E0
ENDCHAR
STARTCHAR 00B8
ENCODING 184
SWIDTH 276 0
DWIDTH 5 0
BBX 4 4 1 -4
BITMAP
40
60
30
E0
ENDCHAR
STARTCHAR 00B9
ENCODING 185
SWIDTH 276 0
DWIDTH 5 0
BBX 3 7 1 6
BITMAP
60
E0
60
60
60
60
60
ENDCHAR
STARTCHAR 00BA
ENCODING 186
SWIDTH 498 0
DWIDTH 9 0
BBX 7 6 1 6
BITMAP
38
4C
C4
C6
44
78
ENDCHAR
STARTCHAR 00BB
ENCODING 187
SWIDTH 498 0
DWIDTH 9 0
BBX 7 7 1 2
BITMAP
98
CC
64
26
64
CC
98
ENDCHAR
STARTCHAR 00BC
ENCODING 188
SWIDTH 775 0
DWIDTH 14 0
BBX 12 12 1 0
BITMAP
6040
E080
2180
2300
2200
2660
2CE0
08A0
19A0
3320
23F0
4020
ENDCHAR
STARTCHAR 00BD
ENCODING 189
SWIDTH 775 0
DWIDTH 14 0
BBX 12 12 1 0
BITMAP
6040
E080
2180
2300
2200
26E0
2C90
0990
1830
30E0
6080
41F0
ENDCHAR
STARTCHAR 00BE
ENCODING 190
SWIDTH 830 0
DWIDTH 15 0
BBX 13 12 1 0
BITMAP
F830
1860
3040
38C0
0980
C930
7330
0650
04D0
0890
18F8
3010
ENDCHAR
STARTCHAR 00BF
ENCODING 191
SWIDTH 498 0
DWIDTH 9 0
BBX 8 13 0 -4
BITMAP
0C
1C
00
00
08
18
38
60
C1
C1
43
7F
3C
ENDCHAR
STARTCHAR 00C0
ENCODING 192
SWIDTH 720 0
DWIDTH 13 0
BBX 12 16 0 0
BITMAP
0C00
0600
0000
0700
0700
0F00
0D80
0980
1880
18C0
30C0
3FE0
3FE0
6060
6030
C030
ENDCHAR
STARTCHAR 00C1
ENCODING 193
SWIDTH 720 0
DWIDTH 13 0
BBX 12 16 0 0
BITMAP
0180
0300
0000
0700
0700
0F00
0D80
0980
1880
18C0
30C0
3FE0
3FE0
6060
6030
C030
ENDCHAR
STARTCHAR 00C2
ENCODING 194
SWIDTH 720 0
DWIDTH 13 0
BBX 12 16 0 0
BITMAP
0700
0980
0000
0700
0700
0F00
0D80
0980
1880
18C0
30C0
3FE0
3FE0
6060
6030
C030
ENDCHAR
STARTCHAR 00C3
ENCODING 195
SWIDTH 720 0
DWIDTH 13 0
BBX 12 16 0 0
BITMAP
0E80
1F80
0000
0700
0700
0F00
0D80
0980
1880
18C0
30C0
3FE0
3FE0
6060
6030
C030
ENDCHAR
STARTCHAR 00C4
ENCODING 196
SWIDTH 720 0
DWIDTH 13 0
BBX 12 16 0 0
BITMAP
18C0
18C0
0000
0700
0700
0F00
0D80
0980
1880
18C0
30C0
3FE0
3FE0
6060
6030
C030
ENDCHAR
STARTCHAR 00C5
ENCODING 197
SWIDTH 720 0
DWIDTH 13 0
BBX 12 16 0 0
BITMAP
0700
0D00
0900
0700
0700
0F00
0D80
0980
1880
18C0
30C0
3FE0
3FE0
6060
6030
C030
ENDCHAR
STARTCHAR 00C6
ENCODING 198
SWIDTH 1052 0
DWIDTH 19 0
BBX 17 13 0 0
BITMAP
00FF80
00FF80
01A000
032000
032000
063F80
0E3F80
0C2000
1FE000
3FE000
302000
603F80
E03F80
ENDCHAR
STARTCHAR 00C7
ENCODING 199
SWIDTH 775 0
DWIDTH 14 0
BBX 12 17 1 -4
BITMAP
0F80
3FC0
6060
C030
C000
C000
C000
C000
C000
C030
6060
3FC0
0F80
0600
0700
0100
0700
ENDCHAR
STARTCHAR 00C8
ENCODING 200
SWIDTH 609 0
DWIDTH 11 0
BBX 7 16 2 0
BITMAP
60
10
00
FE
FE
80
80
80
80
FE
FE
80
80
80
FE
FE
ENDCHAR
STARTCHAR 00C9
ENCODING 201
SWIDTH 609 0
DWIDTH 11 0
BBX 7 16 2 0
BITMAP
0C
18
00
FE
FE
80
80
80
80
FE
FE
80
80
80
FE
FE
ENDCHAR
STARTCHAR 00CA
ENCODING 202
SWIDTH 609 0
DWIDTH 11 0
BBX 7 16 2 0
BITMAP
38
6C
00
FE
FE
80
80
80
80
FE
FE
80
80
80
FE
FE
ENDCHAR
STARTCHAR 00CB
ENCODING 203
SWIDTH 609 0
DWIDTH 11 0
BBX 7 16 2 0
BITMAP
46
46
00
FE
FE
80
80
80
80
FE
FE
80
80
80
FE
FE
ENDCHAR
STARTCHAR 00CC
ENCODING 204
SWIDTH 276 0
DWIDTH 5 0
BBX 3 16 0 0
BITMAP
C0
60
00
20
20
20
20
20
20
20
20
20
20
20
20
20
ENDCHAR
STARTCHAR 00CD
ENCODING 205
SWIDTH 276 0
DWIDTH 5 0
BBX 3 16 2 0
BITMAP
60
C0
00
80
80
80
80
80
80
80
80
80
80
80
80
80
ENDCHAR
STARTCHAR 00CE
ENCODING 206
SWIDTH 276 0
DWIDTH 5 0
BBX 5 16 0 0
BITMAP
70
D8
00
20
20
20
20
20
20
20
20
20
20
20
20
20
ENDCHAR
STARTCHAR 00CF
ENCODING 207
SWIDTH 276 0
DWIDTH 5 0
BBX 5 16 0 0
BITMAP
D8
D8
00
20
20
20
20
20
20
20
20
20
20
20
20
20
ENDCHAR
STARTCHAR 00D0
ENCODING 208
SWIDTH 720 0
DWIDTH 13 0
BBX 12 13 0 0
BITMAP
3F80
3FC0
2060
2030
2030
2030
FC30
2030
2030
2030
2060
3FC0
3F80
ENDCHAR
STARTCHAR 00D1
ENCODING 209
SWIDTH 775 0
DWIDTH 14 0
BBX 10 16 2 0
BITMAP
3F00
3E00
0000
C0C0
E0C0
F0C0
B0C0
98C0
9CC0
8CC0
86C0
86C0
83C0
81C0
81C0
80C0
ENDCHAR
STARTCHAR 00D2
ENCODING 210
SWIDTH 775 0
DWIDTH 14 0
BBX 13 16 1 0
BITMAP
0C00
0600
0000
0F80
3FC0
6060
C030
C010
C018
C018
C018
C010
C030
6060
3FC0
0F80
ENDCHAR
STARTCHAR 00D3
ENCODING 211
SWIDTH 775 0
DWIDTH 14 0
BBX 13 16 1 0
BITMAP
0180
0300
0000
0F80
3FC0
6060
C030
C010
C018
C018
C018
C010
C030
6060
3FC0
0F80
ENDCHAR
STARTCHAR 00D4
ENCODING 212
SWIDTH 775 0
DWIDTH 14 0
BBX 13 16 1 0
BITMAP
0700
0980
0000
0F80
3FC0
6060
C030
C010
C018
C018
C018
C010
C030
6060
3FC0
0F80
ENDCHAR
STARTCHAR 00D5
ENCODING 213
SWIDTH 775 0
DWIDTH 14 0
BBX 13 16 1 0
BITMAP
0C80
1B80
0000
0F80
3FC0
6060
C030
C010
C018
C018
C018
C010
C030
6060
3FC0
0F80
ENDCHAR
STARTCHAR 00D6
ENCODING 214
SWIDTH 775 0
DWIDTH 14 0
BBX 13 16 1 0
BITMAP
10C0
10C0
0000
0F80
3FC0
6060
C030
C010
C018
C018
C018
C010
C030
6060
3FC0
0F80
ENDCHAR
STARTCHAR 00D7
ENCODING 215
SWIDTH 553 0
DWIDTH 10 0
BBX 7 8 1 1
BITMAP
82
C6
6C
38
38
6C
C6
82
ENDCHAR
STARTCHAR 00D8
ENCODING 216
SWIDTH 775 0
DWIDTH 14 0
BBX 13 15 1 -1
BITMAP
0020
0FB0
3FE0
6060
C0F0
C190
C318
C618
C418
CC10
D830
7060
7FC0
6F80
4000
ENDCHAR
STARTCHAR 00D9
ENCODING 217
SWIDTH 664 0
DWIDTH 12 0
BBX 10 16 1 0
BITMAP
1800
0C00
0000
C0C0
C0C0
C0C0
C0C0
C0C0
C0C0
C0C0
C0C0
C0C0
40C0
6180
7F80
1E00
ENDCHAR
STARTCHAR 00DA
ENCODING 218
SWIDTH 664 0
DWIDTH 12 0
BBX 10 16 1 0
BITMAP
0600
0C00
0000
C0C0
C0C0
C0C0
C0C0
C0C0
C0C0
C0C0
C0C0
C0C0
40C0
6180
7F80
1E00
ENDCHAR
STARTCHAR 00DB
ENCODING 219
SWIDTH 664 0
DWIDTH 12 0
BBX 10 16 1 0
BITMAP
1E00
3300
0000
C0C0
C0C0
C0C0
C0C0
C0C0
C0C0
C0C0
C0C0
C0C0
40C0
6180
7F80
1E00
ENDCHAR
STARTCHAR 00DC
ENCODING 220
SWIDTH 664 0
DWIDTH 12 0
BBX 10 16 1 0
BITMAP
3300
3300
0000
C0C0
C0C0
C0C0
C0C0
C0C0
C0C0
C0C0
C0C0
C0C0
40C0
6180
7F80
1E00
ENDCHAR
STARTCHAR 00DD
ENCODING 221
SWIDTH 609 0
DWIDTH 11 0
BBX 11 16 0 0
BITMAP
0300
0600
0000
E060
60C0
3080
3180
1B00
0B00
0E00
0400
0400
0400
0400
0400
0400
ENDCHAR
STARTCHAR 00DE
ENCODING 222
SWIDTH 609 0
DWIDTH 11 0
BBX 8 13 2 0
BITMAP
80
80
F8
FE
83
83
83
83
FF
FC
80
80
80
ENDCHAR
STARTCHAR 00DF
ENCODING 223
SWIDTH 553 0
DWIDTH 10 0
BBX 9 13 1 0
BITMAP
3E00
7F00
6300
C300
C300
CE00
CC00
CC00
CF00
C380
D180
DB80
CF00
ENDCHAR
STARTCHAR 00E0
ENCODING 224
SWIDTH 498 0
DWIDTH 9 0
BBX 7 12 1 0
BITMAP
20
10
00
3C
6E
C6
06
7E
C2
C6
EE
7A
ENDCHAR
STARTCHAR 00E1
ENCODING 225
SWIDTH 498 0
DWIDTH 9 0
BBX 7 12 1 0
BITMAP
0C
18
00
3C
6E
C6
06
7E
C2
C6
EE
7A
ENDCHAR
STARTCHAR 00E2
ENCODING 226
SWIDTH 498 0
DWIDTH 9 0
BBX 7 12 1 0
BITMAP
38
6C
00
3C
6E
C6
06
7E
C2
C6
EE
7A
ENDCHAR
STARTCHAR 00E3
ENCODING 227
SWIDTH 498 0
DWIDTH 9 0
BBX 7 12 1 0
BITMAP
76
4C
00
3C
6E
C6
06
7E
C2
C6
EE
7A
ENDCHAR
STARTCHAR 00E4
ENCODING 228
SWIDTH 498 0
DWIDTH 9 0
BBX 7 12 1 0
BITMAP
6C
6C
00
3C
6E
C6
06
7E
C2
C6
EE
7A
ENDCHAR
STARTCHAR 00E5
ENCODING 229
SWIDTH 498 0
DWIDTH 9 0
BBX 7 14 1 0
BITMAP
38
2C
2C
38
00
3C
6E
C6
06
7E
C2
C6
EE
7A
ENDCHAR
STARTCHAR 00E6
ENCODING 230
SWIDTH 886 0
DWIDTH 16 0
BBX 14 9 1 0
BITMAP
3CF0
6FF8
C30C
070C
7FFC
C300
C70C
EDF8
78F0
ENDCHAR
STARTCHAR 00E7
ENCODING 231
SWIDTH 553 0
DWIDTH 10 0
BBX 8 13 1 -4
BITMAP
3C
7E
C3
C0
80
C0
C3
67
7E
18
1C
04
3C
ENDCHAR
STARTCHAR 00E8
ENCODING 232
SWIDTH 553 0
DWIDTH 10 0
BBX 8 12 1 0
BITMAP
30
18
00
3C
7E
C3
C3
FF
C0
C3
7E
3C
ENDCHAR
STARTCHAR 00E9
ENCODING 233
SWIDTH 553 0
DWIDTH 10 0
BBX 8 12 1 0
BITMAP
0C
08
00
3C
7E
C3
C3
FF
C0
C3
7E
3C
ENDCHAR
STARTCHAR 00EA
ENCODING 234
SWIDTH 553 0
DWIDTH 10 0
BBX 8 12 1 0
BITMAP
18
24
00
3C
7E
C3
C3
FF
C0
C3
7E
3C
ENDCHAR
STARTCHAR 00EB
ENCODING 235
SWIDTH 553 0
DWIDTH 10 0
BBX 8 12 1 0
BITMAP
66
66
00
3C
7E
C3
C3
FF
C0
C3
7E
3C
ENDCHAR
STARTCHAR 00EC
ENCODING 236
SWIDTH 276 0
DWIDTH 5 0
BBX 3 13 0 0
BITMAP
C0
40
60
00
60
60
60
60
60
60
60
60
60
ENDCHAR
STARTCHAR 00ED
ENCODING 237
SWIDTH 276 0
DWIDTH 5 0
BBX 4 13 1 0
BITMAP
30
60
40
00
C0
C0
C0
C0
C0
C0
C0
C0
C0
ENDCHAR
STARTCHAR 00EE
ENCODING 238
SWIDTH 276 0
DWIDTH 5 0
BBX 5 13 0 0
BITMAP
70
F0
98
00
60
60
60
60
60
60
60
60
60
ENDCHAR
STARTCHAR 00EF
ENCODING 239
SWIDTH 276 0
DWIDTH 5 0
BBX 4 13 0 0
BITMAP
D0
D0
00
00
60
60
60
60
60
60
60
60
60
ENDCHAR
STARTCHAR 00F0
ENCODING 240
SWIDTH 553 0
DWIDTH 10 0
BBX 9 13 1 0
BITMAP
2000
3F00
1C00
2600
0300
7F00
E300
C180
8180
C100
C300
7E00
3C00
ENDCHAR
STARTCHAR 00F1
ENCODING 241
SWIDTH 553 0
DWIDTH 10 0
BBX 8 13 1 0
BITMAP
30
3E
0E
00
DE
FE
C3
C3
C3
C3
C3
C3
C3
ENDCHAR
STARTCHAR 00F2
ENCODING 242
SWIDTH 553 0
DWIDTH 10 0
BBX 9 12 1 0
BITMAP
3000
1800
0000
3C00
7F00
C300
C180
8180
C180
C300
7F00
3C00
ENDCHAR
STARTCHAR 00F3
ENCODING 243
SWIDTH 553 0
DWIDTH 10 0
BBX 9 12 1 0
BITMAP
0C00
0800
0000
3C00
7F00
C300
C180
8180
C180
C300
7F00
3C00
ENDCHAR
STARTCHAR 00F4
ENCODING 244
SWIDTH 553 0
DWIDTH 10 0
BBX 9 12 1 0
BITMAP
1C00
2600
0000
3C00
7F00
C300
C180
8180
C180
C300
7F00
3C00
ENDCHAR
STARTCHAR 00F5
ENCODING 245
SWIDTH 553 0
DWIDTH 10 0
BBX 9 12 1 0
BITMAP
3A00
6C00
0000
3C00
7F00
C300
C180
8180
C180
C300
7F00
3C00
ENDCHAR
STARTCHAR 00F6
ENCODING 246
SWIDTH 553 0
DWIDTH 10 0
BBX 9 12 1 0
BITMAP
2600
2600
0000
3C00
7F00
C300
C180
8180
C180
C300
7F00
3C00
ENDCHAR
STARTCHAR 00F7
ENCODING 247
SWIDTH 553 0
DWIDTH 10 0
BBX 8 9 1 1
BITMAP
18
18
08
00
FF
FF
00
18
18
ENDCHAR
STARTCHAR 00F8
ENCODING 248
SWIDTH 553 0
DWIDTH 10 0
BBX 9 11 1 -1
BITMAP
0100
3F00
7F00
C700
CD80
9980
D180
E300
7F00
FC00
8000
ENDCHAR
STARTCHAR 00F9
ENCODING 249
SWIDTH 553 0
DWIDTH 10 0
BBX 8 13 1 0
BITMAP
30
30
18
00
C3
C3
C3
C3
C3
C3
C3
67
3B
ENDCHAR
STARTCHAR 00FA
ENCODING 250
SWIDTH 553 0
DWIDTH 10 0
BBX 8 13 1 0
BITMAP
0C
08
18
00
C3
C3
C3
C3
C3
C3
C3
67
3B
ENDCHAR
STARTCHAR 00FB
ENCODING 251
SWIDTH 553 0
DWIDTH 10 0
BBX 8 13 1 0
BITMAP
18
3C
26
00
C3
C3
C3
C3
C3
C3
C3
67
3B
ENDCHAR
STARTCHAR 00FC
ENCODING 252
SWIDTH 553 0
DWIDTH 10 0
BBX 8 13 1 0
BITMAP
26
66
26
00
C3
C3
C3
C3
C3
C3
C3
67
3B
ENDCHAR
STARTCHAR 00FD
ENCODING 253
SWIDTH 498 0
DWIDTH 9 0
BBX 9 17 0 -4
BITMAP
0600
0C00
0800
0000
C180
6180
6300
3300
3200
1600
1C00
0C00
0C00
1800
1800
3000
3000
ENDCHAR
STARTCHAR 00FE
ENCODING 254
SWIDTH 609 0
DWIDTH 11 0
BBX 9 17 1 -4
BITMAP
C000
C000
C000
C000
DE00
FF00
E180
C180
C180
C180
E180
FF00
DE00
C000
C000
C000
C000
ENDCHAR
STARTCHAR 00FF
ENCODING 255
SWIDTH 498 0
DWIDTH 9 0
BBX 9 17 0 -4
BITMAP
3200
3600
3200
0000
C180
6180
6300
3300
3200
1600
1C00
0C00
0C00
1800
1800
3000
3000
ENDCHAR
STARTCHAR 0131
ENCODING 305
SWIDTH 276 0
DWIDTH 5 0
BBX 2 9 1 0
BITMAP
C0
C0
C0
C0
C0
C0
C0
C0
C0
ENDCHAR
STARTCHAR 0141
ENCODING 321
SWIDTH 553 0
DWIDTH 10 0
BBX 10 13 0 0
BITMAP
3000
3000
3000
3000
3400
3C00
7800
F000
3000
3000
3000
3FC0
3FC0
ENDCHAR
STARTCHAR 0142
ENCODING 322
SWIDTH 276 0
DWIDTH 5 0
BBX 5 13 0 0
BITMAP
20
20
20
20
20
28
38
E0
A0
20
20
20
20
ENDCHAR
STARTCHAR 0152
ENCODING 338
SWIDTH 1163 0
DWIDTH 21 0
BBX 19 13 1 0
BITMAP
0F9FE0
39FFE0
607800
C03800
C01800
C01FC0
C01FC0
C01800
C03800
403800
607800
39DFE0
0F9FE0
ENDCHAR
STARTCHAR 0153
ENCODING 339
SWIDTH 941 0
DWIDTH 17 0
BBX 15 9 1 0
BITMAP
3C78
7FFC
C386
C186
81FE
C180
C386
7FFE
3C78
ENDCHAR
STARTCHAR 0160
ENCODING 352
SWIDTH 609 0
DWIDTH 11 0
BBX 9 16 1 0
BITMAP
3600
1C00
0000
3E00
7F00
C180
C100
C000
7000
3E00
0700
0180
C180
C180
7F00
3E00
ENDCHAR
STARTCHAR 0161
ENCODING 353
SWIDTH 443 0
DWIDTH 8 0
BBX 6 12 1 0
BITMAP
48
38
00
78
FC
C4
C0
78
0C
84
EC
78
ENDCHAR
STARTCHAR 0178
ENCODING 376
SWIDTH 609 0
DWIDTH 11 0
BBX 11 16 0 0
BITMAP
1180
1180
0000
E060
60C0
3080
3180
1B00
0B00
0E00
0400
0400
0400
0400
0400
0400
ENDCHAR
STARTCHAR 017D
ENCODING 381
SWIDTH 609 0
DWIDTH 11 0
BBX 10 16 1 0
BITMAP
3200
1C00
0000
FFC0
FFC0
0180
0300
0600
0E00
0C00
1800
3000
6000
E000
FFC0
FFC0
ENDCHAR
STARTCHAR 017E
ENCODING 382
SWIDTH 443 0
DWIDTH 8 0
BBX 7 13 1 0
BITMAP
4C
78
38
00
FE
FE
0C
18
30
60
60
FE
FE
ENDCHAR
STARTCHAR 0192
ENCODING 402
SWIDTH 498 0
DWIDTH 9 0
BBX 10 17 -1 -3
BITMAP
0080
03C0
0600
0600
0600
1F80
0780
0C00
0C00
0C00
0C00
0800
1800
1800
1800
F000
F000
ENDCHAR
STARTCHAR 02C6
ENCODING 710
SWIDTH 387 0
DWIDTH 7 0
BBX 5 2 1 10
BITMAP
70
D8
ENDCHAR
STARTCHAR 02C7
ENCODING 711
SWIDTH 387 0
DWIDTH 7 0
BBX 5 2 1 10
BITMAP
D8
70
ENDCHAR
STARTCHAR 02C9
ENCODING 713
SWIDTH 332 0
DWIDTH 6 0
BBX 5 1 1 11
BITMAP
F8
ENDCHAR
STARTCHAR 02D8
ENCODING 728
SWIDTH 387 0
DWIDTH 7 0
BBX 5 2 1 10
BITMAP
98
70
ENDCHAR
STARTCHAR 02D9
ENCODING 729
SWIDTH 166 0
DWIDTH 3 0
BBX 2 2 1 10
BITMAP
C0
C0
ENDCHAR
STARTCHAR 02DA
ENCODING 730
SWIDTH 276 0
DWIDTH 5 0
BBX 4 4 1 10
BITMAP
E0
B0
B0
E0
ENDCHAR
STARTCHAR 02DB
ENCODING 731
SWIDTH 221 0
DWIDTH 4 0
BBX 3 4 1 -4
BITMAP
40
80
80
E0
ENDCHAR
STARTCHAR 02DC
ENCODING 732
SWIDTH 387 0
DWIDTH 7 0
BBX 5 2 1 10
BITMAP
E8
B8
ENDCHAR
STARTCHAR 02DD
ENCODING 733
SWIDTH 387 0
DWIDTH 7 0
BBX 5 2 1 10
BITMAP
D8
B0
ENDCHAR
STARTCHAR 0394
ENCODING 916
SWIDTH 664 0
DWIDTH 12 0
BBX 12 13 0 0
BITMAP
0600
0E00
0F00
0B00
1980
1980
1080
30C0
30C0
6060
6060
7FE0
FFF0
ENDCHAR
STARTCHAR 03A9
ENCODING 937
SWIDTH 775 0
DWIDTH 14 0
BBX 13 13 1 0
BITMAP
0F80
3FC0
6060
C030
C030
C018
C018
C010
C030
6060
39C0
F9F0
F9F0
ENDCHAR
STARTCHAR 03BC
ENCODING 956
SWIDTH 553 0
DWIDTH 10 0
BBX 8 13 1 -4
BITMAP
C3
C3
C3
C3
C3
C3
C3
E7
FF
C0
C0
C0
C0
ENDCHAR
STARTCHAR 03C0
ENCODING 960
SWIDTH 609 0
DWIDTH 11 0
BBX 9 9 1 0
BITMAP
FF80
6300
6300
6300
6300
6300
6300
6300
6180
ENDCHAR
STARTCHAR 2007
ENCODING 8199
SWIDTH 609 0
DWIDTH 11 0
BBX 0 0 0 0
BITMAP
ENDCHAR
STARTCHAR 2008
ENCODING 8200
SWIDTH 276 0
DWIDTH 5 0
BBX 0 0 0 0
BITMAP
ENDCHAR
STARTCHAR 200B
ENCODING 8203
SWIDTH 0 0
DWIDTH 0 0
BBX 0 0 0 0
BITMAP
ENDCHAR
STARTCHAR 2013
ENCODING 8211
SWIDTH 664 0
DWIDTH 12 0
BBX 9 1 1 5
BITMAP
FF80
ENDCHAR
STARTCHAR 2014
ENCODING 8212
SWIDTH 1107 0
DWIDTH 20 0
BBX 18 1 1 5
BITMAP
FFFFC0
ENDCHAR
STARTCHAR 2018
ENCODING 8216
SWIDTH 221 0
DWIDTH 4 0
BBX 2 5 1 8
BITMAP
40
80
80
C0
C0
ENDCHAR
STARTCHAR 2019
ENCODING 8217
SWIDTH 221 0
DWIDTH 4 0
BBX 2 5 1 8
BITMAP
C0
C0
40
40
80
ENDCHAR
STARTCHAR 201A
ENCODING 8218
SWIDTH 221 0
DWIDTH 4 0
BBX 2 5 1 -3
BITMAP
C0
C0
40
40
80
ENDCHAR
STARTCHAR 201C
ENCODING 8220
SWIDTH 387 0
DWIDTH 7 0
BBX 5 5 1 8
BITMAP
48
90
90
D8
D8
ENDCHAR
STARTCHAR 201D
ENCODING 8221
SWIDTH 387 0
DWIDTH 7 0
BBX 5 5 1 8
BITMAP
D8
D8
48
48
90
ENDCHAR
STARTCHAR 201E
ENCODING 8222
SWIDTH 387 0
DWIDTH 7 0
BBX 5 5 1 -3
BITMAP
D8
D8
48
48
90
ENDCHAR
STARTCHAR 2020
ENCODING 8224
SWIDTH 387 0
DWIDTH 7 0
BBX 7 10 0 3
BITMAP
10
10
10
FE
10
10
10
10
10
10
ENDCHAR
STARTCHAR 2021
ENCODING 8225
SWIDTH 443 0
DWIDTH 8 0
BBX 6 13 1 0
BITMAP
30
30
30
FC
30
30
30
30
30
FC
30
30
30
ENDCHAR
STARTCHAR 2022
ENCODING 8226
SWIDTH 553 0
DWIDTH 10 0
BBX 8 8 1 1
BITMAP
3C
7E
7E
FF
FF
7E
7E
3C
ENDCHAR
STARTCHAR 2026
ENCODING 8230
SWIDTH 941 0
DWIDTH 17 0
BBX 13 2 2 0
BITMAP
C618
C618
ENDCHAR
STARTCHAR 2030
ENCODING 8240
SWIDTH 1052 0
DWIDTH 19 0
BBX 17 12 1 0
BITMAP
786000
D84000
CCC000
CD8000
790000
030000
060000
04FF00
0D9980
199880
31DD80
20F700
ENDCHAR
STARTCHAR 2039
ENCODING 8249
SWIDTH 276 0
DWIDTH 5 0
BBX 3 7 1 2
BITMAP
20
60
C0
80
C0
60
20
ENDCHAR
STARTCHAR 203A
ENCODING 8250
SWIDTH 276 0
DWIDTH 5 0
BBX 3 7 1 2
BITMAP
80
C0
60
20
60
C0
80
ENDCHAR
STARTCHAR 2042
ENCODING 8258
SWIDTH 830 0
DWIDTH 15 0
BBX 13 13 1 0
BITMAP
0200
0200
0F80
0300
0500
0480
0000
2020
2020
FCF8
3060
5050
4810
ENDCHAR
STARTCHAR 2044
ENCODING 8260
SWIDTH 553 0
DWIDTH 10 0
BBX 10 12 0 0
BITMAP
00C0
0180
0100
0300
0600
0400
0800
1800
3000
2000
6000
C000
ENDCHAR
STARTCHAR 2051
ENCODING 8273
SWIDTH 443 0
DWIDTH 8 0
BBX 6 13 1 0
BITMAP
20
20
FC
30
78
48
00
20
20
FC
30
78
48
ENDCHAR
STARTCHAR 2070
ENCODING 8304
SWIDTH 443 0
DWIDTH 8 0
BBX 6 7 1 6
BITMAP
70
C8
CC
8C
CC
C8
70
ENDCHAR
STARTCHAR 2074
ENCODING 8308
SWIDTH 443 0
DWIDTH 8 0
BBX 6 7 1 6
BITMAP
18
38
78
D8
FC
18
18
ENDCHAR
STARTCHAR 2075
ENCODING 8309
SWIDTH 387 0
DWIDTH 7 0
BBX 5 7 1 6
BITMAP
78
40
F0
48
08
D8
70
ENDCHAR
STARTCHAR 2076
ENCODING 8310
SWIDTH 443 0
DWIDTH 8 0
BBX 5 7 1 6
BITMAP
38
40
F8
C8
C8
C8
70
ENDCHAR
STARTCHAR 2077
ENCODING 8311
SWIDTH 443 0
DWIDTH 8 0
BBX 5 7 1 6
BITMAP
F8
18
10
30
20
60
60
ENDCHAR
STARTCHAR 2078
ENCODING 8312
SWIDTH 387 0
DWIDTH 7 0
BBX 5 7 1 6
BITMAP
70
C8
C8
70
C8
C8
78
ENDCHAR
STARTCHAR 2079
ENCODING 8313
SWIDTH 443 0
DWIDTH 8 0
BBX 5 7 1 6
BITMAP
70
C8
88
C8
78
18
F0
ENDCHAR
STARTCHAR 2080
ENCODING 8320
SWIDTH 443 0
DWIDTH 8 0
BBX 6 6 1 -1
BITMAP
78
C8
CC
CC
C8
78
ENDCHAR
STARTCHAR 2081
ENCODING 8321
SWIDTH 276 0
DWIDTH 5 0
BBX 3 6 1 -1
BITMAP
60
E0
60
60
60
60
ENDCHAR
STARTCHAR 2082
ENCODING 8322
SWIDTH 387 0
DWIDTH 7 0
BBX 5 6 1 -1
BITMAP
70
D8
18
30
C0
F8
ENDCHAR
STARTCHAR 2083
ENCODING 8323
SWIDTH 387 0
DWIDTH 7 0
BBX 5 6 1 -1
BITMAP
F8
10
30
08
C8
78
ENDCHAR
STARTCHAR 2084
ENCODING 8324
SWIDTH 443 0
DWIDTH 8 0
BBX 6 6 1 -1
BITMAP
18
38
78
D8
FC
18
ENDCHAR
STARTCHAR 2085
ENCODING 8325
SWIDTH 387 0
DWIDTH 7 0
BBX 5 6 1 -1
BITMAP
78
40
F8
08
88
78
ENDCHAR
STARTCHAR 2086
ENCODING 8326
SWIDTH 443 0
DWIDTH 8 0
BBX 5 6 1 -1
BITMAP
78
40
B8
C8
C8
78
ENDCHAR
STARTCHAR 2087
ENCODING 8327
SWIDTH 443 0
DWIDTH 8 0
BBX 5 6 1 -1
BITMAP
F8
18
30
20
60
60
ENDCHAR
STARTCHAR 2088
ENCODING 8328
SWIDTH 387 0
DWIDTH 7 0
BBX 5 6 1 -1
BITMAP
78
C8
70
C8
C8
78
ENDCHAR
STARTCHAR 2089
ENCODING 8329
SWIDTH 443 0
DWIDTH 8 0
BBX 5 6 1 -1
BITMAP
78
C8
C8
78
18
70
ENDCHAR
STARTCHAR 20AC
ENCODING 8364
SWIDTH 664 0
DWIDTH 12 0
BBX 11 12 1 0
BITMAP
07C0
1FC0
1800
3000
FF80
2000
2000
FE00
3000
1800
1FE0
07C0
ENDCHAR
STARTCHAR 2113
ENCODING 8467
SWIDTH 387 0
DWIDTH 7 0
BBX 6 12 1 0
BITMAP
38
7C
6C
6C
68
78
70
E0
E0
60
78
38
ENDCHAR
STARTCHAR 2122
ENCODING 8482
SWIDTH 886 0
DWIDTH 16 0
BBX 13 7 1 6
BITMAP
FB08
2318
2398
22B8
22E8
2268
2248
ENDCHAR
STARTCHAR 2126
ENCODING 8486
SWIDTH 775 0
DWIDTH 14 0
BBX 13 13 1 0
BITMAP
0F80
3FC0
6060
C030
C030
C018
C018
C010
C030
6060
39C0
F9F0
F9F0
ENDCHAR
STARTCHAR 2160
ENCODING 8544
SWIDTH 498 0
DWIDTH 9 0
BBX 7 12 1 0
BITMAP
FE
FE
10
10
10
10
10
10
10
10
FE
FE
ENDCHAR
STARTCHAR 2161
ENCODING 8545
SWIDTH 775 0
DWIDTH 14 0
BBX 12 12 1 0
BITMAP
FFF0
FFF0
1080
1080
1080
1080
1080
1080
1080
1080
FFF0
FFF0
ENDCHAR
STARTCHAR 2162
ENCODING 8546
SWIDTH 1052 0
DWIDTH 19 0
BBX 17 12 1 0
BITMAP
FFFF80
FFFF80
108400
108400
108400
108400
108400
108400
108400
108400
FFFF80
FFFF80
ENDCHAR
STARTCHAR 2163
ENCODING 8547
SWIDTH 996 0
DWIDTH 18 0
BBX 16 12 1 0
BITMAP
FFFF
FFFF
330C
3308
3318
3198
3190
31B0
30F0
30E0
FFFF
FFFF
ENDCHAR
STARTCHAR 2164
ENCODING 8548
SWIDTH 830 0
DWIDTH 15 0
BBX 13 12 1 0
BITMAP
FFF8
FFF8
30C0
10C0
18C0
1980
0980
0D80
0D00
0700
FFF0
FFF0
ENDCHAR
STARTCHAR 2165
ENCODING 8549
SWIDTH 996 0
DWIDTH 18 0
BBX 16 12 1 0
BITMAP
FFFF
FFFF
304C
10CC
18CC
188C
098C
0D8C
0D0C
070C
FFFF
FFFF
ENDCHAR
STARTCHAR 2166
ENCODING 8550
SWIDTH 1273 0
DWIDTH 23 0
BBX 21 12 1 0
BITMAP
FFFFF8
FFFFF8
304C60
10CC60
18CC60
188C60
098C60
0D8C60
0D0C60
070C60
FFFFF8
FFFFF8
ENDCHAR
STARTCHAR 2167
ENCODING 8551
SWIDTH 1550 0
DWIDTH 28 0
BBX 26 12 1 0
BITMAP
FFFFFFC0
FFFFFFC0
30CC6200
10CC6200
18CC6200
198C6200
098C6200
0D8C6200
0D0C6200
070C6200
FFFFFFC0
FFFFFFC0
ENDCHAR
STARTCHAR 2168
ENCODING 8552
SWIDTH 996 0
DWIDTH 18 0
BBX 16 12 1 0
BITMAP
FFFF
FFFF
3318
31B0
30F0
30E0
30E0
30F0
31B0
3318
FFFF
FFFF
ENDCHAR
STARTCHAR 2169
ENCODING 8553
SWIDTH 775 0
DWIDTH 14 0
BBX 12 12 1 0
BITMAP
FFF0
FFF0
3180
1980
0F00
0600
0600
0F00
1900
1980
FFF0
FFF0
ENDCHAR
STARTCHAR 216C
ENCODING 8556
SWIDTH 664 0
DWIDTH 12 0
BBX 10 12 1 0
BITMAP
FE00
FE00
3000
3000
3000
3000
3000
30C0
30C0
30C0
FFC0
FFC0
ENDCHAR
STARTCHAR 216D
ENCODING 8557
SWIDTH 720 0
DWIDTH 13 0
BBX 11 12 1 0
BITMAP
1F60
39E0
6060
C060
C000
C000
C000
C000
C060
60E0
3FE0
1F60
ENDCHAR
STARTCHAR 216E
ENCODING 8558
SWIDTH 720 0
DWIDTH 13 0
BBX 11 12 1 0
BITMAP
FF00
FFC0
30C0
3060
3060
3060
3060
3060
3060
30C0
FFC0
FF00
ENDCHAR
STARTCHAR 216F
ENCODING 8559
SWIDTH 1052 0
DWIDTH 19 0
BBX 17 12 1 0
BITMAP
F80F80
F80F80
3C1E00
3C1E00
361600
363600
323600
336600
336600
31C600
FDDF80
FC9F80
ENDCHAR
STARTCHAR 2190
ENCODING 8592
SWIDTH 1052 0
DWIDTH 19 0
BBX 17 7 0 2
BITMAP
100000
300000
700000
FFFF80
7FFF80
300000
100000
ENDCHAR
STARTCHAR 2191
ENCODING 8593
SWIDTH 443 0
DWIDTH 8 0
BBX 6 17 1 -3
BITMAP
10
38
78
FC
10
10
10
10
10
10
10
10
10
10
10
10
10
ENDCHAR
STARTCHAR 2192
ENCODING 8594
SWIDTH 1052 0
DWIDTH 19 0
BBX 16 8 1 1
BITMAP
0008
000C
000E
FFFF
000F
000E
000C
0008
ENDCHAR
STARTCHAR 2193
ENCODING 8595
SWIDTH 443 0
DWIDTH 8 0
BBX 8 17 0 -3
BITMAP
18
18
18
18
18
18
18
18
18
18
18
18
FF
7E
3C
18
10
ENDCHAR
STARTCHAR 2196
ENCODING 8598
SWIDTH 886 0
DWIDTH 16 0
BBX 13 13 1 0
BITMAP
F800
F000
F000
F800
9C00
0E00
0700
0380
01C0
00E0
0070
0038
0010
ENDCHAR
STARTCHAR 2197
ENCODING 8599
SWIDTH 775 0
DWIDTH 14 0
BBX 12 13 0 0
BITMAP
01F0
00F0
0070
00F0
0190
0300
0600
0C00
1800
3000
6000
C000
8000
ENDCHAR
STARTCHAR 2198
ENCODING 8600
SWIDTH 886 0
DWIDTH 16 0
BBX 13 13 1 0
BITMAP
4000
E000
7000
3800
1C00
0E00
0700
0380
01C8
00F8
0078
0078
00F8
ENDCHAR
STARTCHAR 2199
ENCODING 8601
SWIDTH 775 0
DWIDTH 14 0
BBX 12 13 1 0
BITMAP
0010
0030
0060
00C0
0180
0300
0600
0C00
9800
F000
E000
F000
F800
ENDCHAR
STARTCHAR 21A9
ENCODING 8617
SWIDTH 830 0
DWIDTH 15 0
BBX 15 10 0 2
BITMAP
01F8
003C
0004
0006
1006
700C
FFF8
7FE0
3000
1000
ENDCHAR
STARTCHAR 21B0
ENCODING 8624
SWIDTH 775 0
DWIDTH 14 0
BBX 11 13 1 0
BITMAP
1000
3000
7000
FFE0
7020
1020
0020
0020
0020
0020
0020
0020
0020
ENDCHAR
STARTCHAR 21B1
ENCODING 8625
SWIDTH 720 0
DWIDTH 13 0
BBX 12 13 1 0
BITMAP
0080
00C0
00E0
FFF0
80E0
8080
8000
8000
8000
8000
8000
8000
8000
ENDCHAR
STARTCHAR 21B2
ENCODING 8626
SWIDTH 775 0
DWIDTH 14 0
BBX 12 13 0 0
BITMAP
0010
0010
0010
0010
0010
0010
0010
3010
7010
FFF0
7FF0
3000
1000
ENDCHAR
STARTCHAR 21B3
ENCODING 8627
SWIDTH 830 0
DWIDTH 15 0
BBX 12 13 2 0
BITMAP
8000
8000
8000
8000
8000
8000
8000
8080
80C0
FFF0
00E0
00C0
0080
ENDCHAR
STARTCHAR 21B4
ENCODING 8628
SWIDTH 830 0
DWIDTH 15 0
BBX 13 13 1 0
BITMAP
FFC0
0040
0040
0040
0040
0040
0040
0040
0040
01F8
00F0
00E0
0040
ENDCHAR
STARTCHAR 21C6
ENCODING 8646
SWIDTH 1107 0
DWIDTH 20 0
BBX 18 13 1 0
BITMAP
100000
300000
700000
FFFFC0
300000
100000
000000
000200
000300
FFFFC0
000380
000300
000200
ENDCHAR
STARTCHAR 2202
ENCODING 8706
SWIDTH 609 0
DWIDTH 11 0
BBX 9 13 1 0
BITMAP
7C00
7E00
0300
0180
0180
3F80
7F80
C180
C180
C180
C300
7F00
3C00
ENDCHAR
STARTCHAR 2206
ENCODING 8710
SWIDTH 664 0
DWIDTH 12 0
BBX 12 13 0 0
BITMAP
0600
0E00
0F00
0B00
1980
1980
1080
30C0
30C0
6060
6060
7FE0
FFF0
ENDCHAR
STARTCHAR 220F
ENCODING 8719
SWIDTH 664 0
DWIDTH 12 0
BBX 9 13 2 0
BITMAP
FF80
FF80
8180
8180
8180
8180
8180
8180
8180
8180
8180
8180
8180
ENDCHAR
STARTCHAR 2211
ENCODING 8721
SWIDTH 553 0
DWIDTH 10 0
BBX 9 13 1 0
BITMAP
FF80
FF80
6000
3000
1800
0C00
0600
0C00
1800
3000
6000
FF80
FF80
ENDCHAR
STARTCHAR 2212
ENCODING 8722
SWIDTH 553 0
DWIDTH 10 0
BBX 8 1 1 5
BITMAP
FF
ENDCHAR
STARTCHAR 2215
ENCODING 8725
SWIDTH 387 0
DWIDTH 7 0
BBX 7 12 0 0
BITMAP
06
06
0C
0C
08
18
10
30
20
60
40
C0
ENDCHAR
STARTCHAR 2219
ENCODING 8729
SWIDTH 276 0
DWIDTH 5 0
BBX 3 2 1 4
BITMAP
E0
E0
ENDCHAR
STARTCHAR 221A
ENCODING 8730
SWIDTH 664 0
DWIDTH 12 0
BBX 12 16 1 0
BITMAP
00F0
00F0
0180
0180
0180
0300
0300
C300
C600
6600
6600
6C00
3C00
3C00
1800
1800
ENDCHAR
STARTCHAR 221E
ENCODING 8734
SWIDTH 775 0
DWIDTH 14 0
BBX 13 6 1 2
BITMAP
79F0
CF10
8618
8718
CDB0
78E0
ENDCHAR
STARTCHAR 222B
ENCODING 8747
SWIDTH 332 0
DWIDTH 6 0
BBX 6 17 0 -4
BITMAP
1C
3C
30
30
30
30
30
30
30
30
30
30
30
30
30
E0
E0
ENDCHAR
STARTCHAR 2248
ENCODING 8776
SWIDTH 553 0
DWIDTH 10 0
BBX 9 7 1 2
BITMAP
2000
F900
8F00
0000
2000
FF80
8F00
ENDCHAR
STARTCHAR 2260
ENCODING 8800
SWIDTH 609 0
DWIDTH 11 0
BBX 9 8 1 1
BITMAP
0300
0600
FF80
0C00
1800
FF80
2000
6000
ENDCHAR
STARTCHAR 2264
ENCODING 8804
SWIDTH 553 0
DWIDTH 10 0
BBX 8 9 1 1
BITMAP
03
0F
78
C0
78
1F
03
00
FF
ENDCHAR
STARTCHAR 2265
ENCODING 8805
SWIDTH 553 0
DWIDTH 10 0
BBX 8 9 1 1
BITMAP
C0
F0
1E
03
1E
F0
C0
00
FF
ENDCHAR
STARTCHAR 22C5
ENCODING 8901
SWIDTH 276 0
DWIDTH 5 0
BBX 3 2 1 4
BITMAP
E0
E0
ENDCHAR
STARTCHAR 24C5
ENCODING 9413
SWIDTH 830 0
DWIDTH 15 0
BBX 13 13 1 0
BITMAP
0F80
38E0
6030
4F90
CC98
8C98
8F88
8C18
CC18
4C10
6030
38E0
0F80
ENDCHAR
STARTCHAR 25A0
ENCODING 9632
SWIDTH 941 0
DWIDTH 17 0
BBX 13 13 2 0
BITMAP
FFF8
FFF8
FFF8
FFF8
FFF8
FFF8
FFF8
FFF8
FFF8
FFF8
FFF8
FFF8
FFF8
ENDCHAR
STARTCHAR 25A1
ENCODING 9633
SWIDTH 941 0
DWIDTH 17 0
BBX 13 13 2 0
BITMAP
FFF8
8018
8018
8018
8018
8018
8018
8018
8018
8018
8018
8018
FFF8
ENDCHAR
STARTCHAR 25B2
ENCODING 9650
SWIDTH 830 0
DWIDTH 15 0
BBX 15 13 0 0
BITMAP
0100
0100
0380
03C0
07C0
0FE0
0FE0
1FF0
1FF8
3FF8
7FFC
7FFC
FFFE
ENDCHAR
STARTCHAR 25B3
ENCODING 9651
SWIDTH 830 0
DWIDTH 15 0
BBX 15 13 0 0
BITMAP
0100
0100
0380
02C0
06C0
0C60
0C20
1830
1018
3018
600C
600C
FFFE
ENDCHAR
STARTCHAR 25CA
ENCODING 9674
SWIDTH 553 0
DWIDTH 10 0
BBX 8 13 1 0
BITMAP
18
3C
3C
66
66
C3
81
C3
66
66
3C
3C
18
ENDCHAR
STARTCHAR 25CB
ENCODING 9675
SWIDTH 830 0
DWIDTH 15 0
BBX 13 13 1 0
BITMAP
0F80
3DE0
6030
4010
C018
8008
8008
8008
C018
4010
6030
3DE0
0F80
ENDCHAR
STARTCHAR 25CF
ENCODING 9679
SWIDTH 830 0
DWIDTH 15 0
BBX 13 13 1 0
BITMAP
0F80
3FE0
7FF0
7FF0
FFF8
FFF8
FFF8
FFF8
FFF8
7FF0
7FF0
3FE0
0F80
ENDCHAR
STARTCHAR 262E
ENCODING 9774
SWIDTH 830 0
DWIDTH 15 0
BBX 13 13 1 0
BITMAP
0F80
3AE0
6230
4210
C218
8218
8708
8F98
DAD8
7270
6230
3AE0
0F80
ENDCHAR
STARTCHAR 2713
ENCODING 10003
SWIDTH 996 0
DWIDTH 18 0
BBX 17 13 0 0
BITMAP
000080
000180
000300
000600
000C00
001800
003000
C06000
60C000
318000
1B0000
0E0000
040000
ENDCHAR
STARTCHAR 2715
ENCODING 10005
SWIDTH 775 0
DWIDTH 14 0
BBX 12 13 1 0
BITMAP
8010
C030
6060
30C0
1980
0F00
0600
0F00
1980
30C0
6060
C030
8010
ENDCHAR
STARTCHAR 2780
ENCODING 10112
SWIDTH 830 0
DWIDTH 15 0
BBX 13 13 1 0
BITMAP
0F80
38E0
6030
C210
8E18
8208
8208
8218
C218
4210
6030
38E0
0F80
ENDCHAR
STARTCHAR 2781
ENCODING 10113
SWIDTH 830 0
DWIDTH 15 0
BBX 13 13 1 0
BITMAP
0F80
38E0
6030
4710
CD98
8998
8308
8618
CC18
CF90
6030
38E0
0F80
ENDCHAR
STARTCHAR 2782
ENCODING 10114
SWIDTH 830 0
DWIDTH 15 0
BBX 13 13 1 0
BITMAP
0F80
38E0
6030
CF90
C118
8618
8388
8198
C998
4710
6030
38E0
0F80
ENDCHAR
STARTCHAR 2783
ENCODING 10115
SWIDTH 830 0
DWIDTH 15 0
BBX 13 13 1 0
BITMAP
0F80
38E0
6030
4310
C718
8D18
8908
9F98
C118
4110
6030
38E0
0F80
ENDCHAR
STARTCHAR 2784
ENCODING 10116
SWIDTH 830 0
DWIDTH 15 0
BBX 13 13 1 0
BITMAP
0F80
38E0
6030
4710
CC18
8818
8F08
8188
8998
CF10
6030
38E0
0F80
ENDCHAR
STARTCHAR 2785
ENCODING 10117
SWIDTH 830 0
DWIDTH 15 0
BBX 13 13 1 0
BITMAP
0F80
38E0
6030
C710
CC18
8F18
9988
8998
C998
4710
6030
38E0
0F80
ENDCHAR
STARTCHAR 2786
ENCODING 10118
SWIDTH 830 0
DWIDTH 15 0
BBX 13 13 1 0
BITMAP
0F80
38E0
6030
CF90
8198
8318
8208
8618
C418
4410
6030
38E0
0F80
ENDCHAR
STARTCHAR 2787
ENCODING 10119
SWIDTH 830 0
DWIDTH 15 0
BBX 13 13 1 0
BITMAP
0F80
38E0
6030
4710
C998
8998
8708
8998
C998
4710
6030
38E0
0F80
ENDCHAR
STARTCHAR 2788
ENCODING 10120
SWIDTH 830 0
DWIDTH 15 0
BBX 13 13 1 0
BITMAP
0F80
38E0
6030
4710
CD98
8898
8988
8698
C198
CF10
6030
38E0
0F80
ENDCHAR
STARTCHAR E000
ENCODING 57344
SWIDTH 830 0
DWIDTH 15 0
BBX 13 13 1 0
BITMAP
3FF8
3FF8
3000
3000
3000
3000
3000
3000
3000
FC00
7800
3000
2000
ENDCHAR
STARTCHAR E001
ENCODING 57345
SWIDTH 1107 0
DWIDTH 20 0
BBX 18 13 1 0
BITMAP
03E000
07F000
0C0000
180200
100700
300F80
F40FC0
780200
380200
300600
000C00
03F800
03E000
ENDCHAR
STARTCHAR E002
ENCODING 57346
SWIDTH 941 0
DWIDTH 17 0
BBX 16 13 1 0
BITMAP
0F80
3FC0
6000
4008
C01C
C03E
807F
C008
C018
4010
6030
3DE0
0F80
ENDCHAR
STARTCHAR FB00
ENCODING 64256
SWIDTH 664 0
DWIDTH 12 0
BBX 12 14 0 0
BITMAP
0C20
1CF0
30C0
3080
3080
FFF0
FFF0
3080
3080
3080
3080
3080
3080
3080
ENDCHAR
STARTCHAR FB01
ENCODING 64257
SWIDTH 609 0
DWIDTH 11 0
BBX 10 14 0 0
BITMAP
0CC0
1DC0
3080
3000
3000
FF80
FF80
3080
3080
3080
3080
3080
3080
3080
ENDCHAR
STARTCHAR FB02
ENCODING 64258
SWIDTH 609 0
DWIDTH 11 0
BBX 9 13 0 0
BITMAP
1C80
3C80
3080
3080
FF80
FF80
3080
3080
3080
3080
3080
3080
3080
ENDCHAR
STARTCHAR FB03
ENCODING 64259
SWIDTH 941 0
DWIDTH 17 0
BBX 16 14 0 0
BITMAP
0C26
1CF7
30C2
3080
3080
FFFE
FFFE
3086
3086
3086
3086
3086
3086
3086
ENDCHAR
STARTCHAR FB04
ENCODING 64260
SWIDTH 941 0
DWIDTH 17 0
BBX 15 13 0 0
BITMAP
1C76
3CF6
3086
3086
FFFE
FFFE
3086
3086
3086
3086
3086
3086
3086
ENDCHAR
STARTCHAR FEFF
ENCODING 65279
SWIDTH 0 0
DWIDTH 0 0
BBX 0 0 0 0
BITMAP
ENDCHAR
ENDFONT
